<svg width="24" height="24" viewBox="0 0 24 24" fill="none" xmlns="http://www.w3.org/2000/svg">
<g clip-path="url(#clip0_26_874)">
<path d="M22.5805 17.2236C22.6426 17.3842 22.5917 17.5187 22.454 17.6292C21.1646 18.6639 19.8112 19.6025 18.338 20.3619L17.108 20.9952C17.3617 21.1971 17.648 21.2539 17.952 21.2426C18.2848 21.2302 18.5636 21.0779 18.8211 20.8821C19.1289 20.6481 19.4199 20.3892 19.7432 20.1794C20.526 19.6714 21.3698 19.7173 22.1102 20.2901C22.4247 20.5335 22.7139 20.8114 23.0402 21.0367C23.198 21.1455 23.4 21.2049 23.5937 21.2476L23.6365 21.2568C23.8716 21.3062 24.0144 21.4241 23.9987 21.6265C23.9832 21.8272 23.8237 21.9445 23.5827 21.929C23.0723 21.8961 22.6721 21.6337 22.2971 21.3163C22.063 21.1182 21.8368 20.9069 21.5841 20.7351C21.1154 20.4165 20.6182 20.4072 20.1407 20.7131C19.8594 20.8934 19.6035 21.1139 19.3402 21.3213C18.9158 21.6557 18.4577 21.9019 17.8989 21.9103C17.2859 21.9196 16.7926 21.6453 16.3407 21.2686C16.1791 21.1339 16.0191 20.9971 15.8544 20.8662C15.2369 20.3752 14.6043 20.3754 13.9847 20.8666C13.9126 20.9239 13.841 20.9819 13.7698 21.0404L13.6273 21.1572C13.509 21.255 13.3887 21.3504 13.2665 21.4434C12.508 22.0149 11.6395 22.0422 10.8535 21.507C10.5676 21.3124 10.3069 21.0808 10.0342 20.8666C9.41448 20.3801 8.90017 20.3815 8.26942 20.8645L8.21786 20.9041L8.06317 21.0233C7.85692 21.1822 7.64926 21.3397 7.43129 21.4809C6.61004 22.0132 5.77407 21.991 4.95779 21.4765C4.62001 21.2636 4.31167 21.0043 3.9917 20.7633L3.94361 20.7272C3.81592 20.6322 3.68973 20.5348 3.55867 20.4446C3.37586 20.3188 3.17898 20.2837 2.98098 20.4035C2.63111 20.6153 2.28536 20.8338 1.93886 21.051C1.61139 21.2562 1.29498 21.4818 0.954481 21.6624C0.769981 21.7601 0.548356 21.8056 0.338075 21.8325C0.142325 21.8573 0.00769963 21.7125 0.000199631 21.5296C-0.00711287 21.3496 0.110825 21.2366 0.294106 21.1846L0.304793 21.1817C0.499606 21.1297 0.700325 21.0638 0.869356 20.9579C1.34626 20.6589 1.80845 20.3365 2.27589 20.0225C2.2892 20.0137 2.29689 19.9968 2.31273 19.9765L2.02257 19.4294C1.92557 19.2468 1.82892 19.0639 1.73261 18.8808C1.56386 18.5595 1.67364 18.3439 2.03607 18.3182C3.01323 18.2485 3.99104 18.1888 4.96858 18.1261L10.5955 17.7661C11.9256 17.6808 13.2555 17.5946 14.5855 17.5091C16.461 17.3885 18.3366 17.2679 20.2122 17.1474C20.711 17.1154 21.2097 17.0842 21.7085 17.0517L22.2072 17.0187C22.379 17.0072 22.5168 17.0589 22.5805 17.2236ZM21.1537 17.7917L21.1369 17.7509L2.51748 18.9459L2.56342 19.0315C2.68417 19.2569 2.79104 19.4605 2.90776 19.6582C2.91854 19.6765 2.95623 19.6802 2.9957 19.6816L3.03601 19.6825L3.04811 19.683L3.05954 19.6837C3.22136 19.6955 3.39817 19.6671 3.54189 19.7237C3.7712 19.8139 3.99039 19.9433 4.19251 20.0859C4.55439 20.3413 4.88926 20.6355 5.25564 20.8837C5.90682 21.3244 6.52004 21.3113 7.16064 20.8644C7.43092 20.6758 7.68733 20.4674 7.95517 20.2751C8.79254 19.6737 9.58586 19.6861 10.4033 20.314C10.6421 20.4976 10.8699 20.6955 11.1083 20.8796C11.7062 21.3411 12.3129 21.3427 12.9077 20.8843C13.1058 20.7317 13.2944 20.5668 13.4889 20.4094C14.3707 19.6953 15.2645 19.6264 16.1317 20.2633L16.1579 20.2827C16.4354 20.4913 16.6419 20.4809 16.9185 20.3434L17.0531 20.2763C18.2866 19.6597 19.4967 19.0046 20.6139 18.1905C20.7947 18.0587 20.9739 17.9247 21.1537 17.7917ZM3.86401 2.06311C5.87926 2.96946 7.68901 4.18871 9.33386 5.65413C11.3804 7.47769 12.9935 9.63096 14.1849 12.0937C14.8119 13.3899 15.2995 14.7363 15.5236 16.1658L15.5343 16.2359L15.5506 16.3479C15.5509 16.6245 15.3286 16.787 15.0969 16.6937C13.9464 16.2302 12.7584 15.9088 11.5307 15.7253C9.90836 15.4826 8.30636 15.543 6.72911 16.0164C5.68314 16.3304 4.68817 16.7586 3.76361 17.343C3.59289 17.451 3.41186 17.4321 3.30048 17.3C3.18461 17.1629 3.18479 16.9974 3.31857 16.8526C4.28448 15.8071 4.84651 14.5515 5.21917 13.2014C5.5832 11.8823 5.71614 10.5343 5.63457 9.17058C5.57336 8.14563 5.32679 7.15385 5.00411 6.1803C4.58664 4.92077 4.04495 3.71675 3.39179 2.56189C3.28511 2.37311 3.28707 2.2261 3.39498 2.10535C3.50664 1.9803 3.65045 1.96703 3.86401 2.06311ZM10.0768 4.4175C10.2637 4.4718 10.5154 4.52544 10.7522 4.61722C11.6975 4.98404 12.5119 5.566 13.2878 6.2018C14.5487 7.23507 15.7032 8.37797 16.7358 9.63843C17.4544 10.5157 18.0439 11.4808 18.5814 12.4768C19.1907 13.6065 19.7156 14.7742 20.161 15.9772L20.192 16.0612C20.2038 16.0932 20.2159 16.1251 20.2267 16.1573C20.2736 16.2964 20.2678 16.431 20.1585 16.5372C20.0469 16.6457 19.9131 16.6529 19.7718 16.5978L19.7619 16.5939C19.5595 16.5109 19.3541 16.4343 19.1521 16.3505L19.0657 16.3141C18.497 16.0708 17.9125 16.0222 17.3107 16.1584C17.2552 16.1711 17.1989 16.1806 17.1427 16.1892C16.9194 16.2235 16.7799 16.1365 16.7189 15.921C16.1327 13.8475 15.3062 11.8732 14.2599 9.98946L14.2075 9.89563C13.5329 8.69404 12.7606 7.56404 11.7569 6.60404C11.1643 6.03703 10.5407 5.50853 9.85192 5.05965C9.69236 4.95563 9.63254 4.81124 9.68504 4.65367C9.73679 4.49871 9.85745 4.43778 10.0768 4.4175ZM4.46664 3.1018C4.46851 3.15423 4.48267 3.19526 4.50179 3.23357C4.93979 4.11423 5.3207 5.01881 5.62998 5.95217C5.92342 6.83759 6.14842 7.74002 6.25623 8.66806C6.37689 9.70675 6.32729 10.7428 6.18433 11.7759C5.99617 13.1365 5.61761 14.4378 4.96473 15.6532L4.88879 15.7948L4.77367 16.01C4.79776 16.0166 4.81004 16.0243 4.81792 16.0212C4.88672 15.9942 4.95501 15.966 5.02276 15.9365C6.40839 15.3301 7.85223 14.9639 9.36873 14.9263C11.1003 14.8833 12.7775 15.1945 14.4153 15.7366L14.5271 15.7736C14.6081 15.8001 14.6946 15.8274 14.8065 15.8636C14.143 12.9684 12.7676 10.4799 10.9138 8.24142C9.12667 6.08348 6.95298 4.39731 4.46664 3.1018ZM12.6945 6.61198L12.7164 6.63675L12.76 6.68516C12.7769 6.70404 12.7922 6.7218 12.8065 6.7403C12.9086 6.87152 13.0118 7.00174 13.1164 7.13096L13.2869 7.34236C13.543 7.66049 13.796 7.98086 14.0184 8.32086C15.4251 10.4717 16.4595 12.7974 17.2135 15.2483L17.2363 15.3226C17.2755 15.451 17.3293 15.487 17.4548 15.4682L17.4635 15.4668C18.0276 15.3731 18.5789 15.4218 19.1135 15.627L19.1411 15.6378C19.1922 15.658 19.2468 15.6692 19.3458 15.6981C18.6216 13.8967 17.7656 12.2198 16.6825 10.6568C15.746 9.30516 13.2382 6.90544 12.6945 6.61198Z" fill="#0A0A0A"/>
</g>
<defs>
<clipPath id="clip0_26_874">
<rect width="24" height="24" fill="white"/>
</clipPath>
</defs>
</svg>
