<svg width="24" height="24" viewBox="0 0 24 24" fill="none" xmlns="http://www.w3.org/2000/svg">
<path d="M0 4C0 1.79086 1.79086 0 4 0H20C22.2091 0 24 1.79086 24 4V20C24 22.2091 22.2091 24 20 24H4C1.79086 24 0 22.2091 0 20V4Z" fill="#0A0A0A"/>
<path d="M15.6132 10.0313V8.5H22V10.0313H19.7897V15.5H17.8235V10.0313H15.6132Z" fill="white"/>
<path d="M11.5766 15.5H8.7492V8.5H11.5479C12.3038 8.5 12.9568 8.64014 13.507 8.92041C14.0596 9.1984 14.4854 9.59945 14.7844 10.1235C15.0858 10.6453 15.2365 11.2708 15.2365 12C15.2365 12.7292 15.087 13.3558 14.788 13.8799C14.489 14.4017 14.0656 14.8027 13.5178 15.083C12.97 15.361 12.3229 15.5 11.5766 15.5ZM10.7442 13.8867H11.5049C11.8685 13.8867 12.1782 13.8309 12.4342 13.7192C12.6925 13.6076 12.8887 13.415 13.0226 13.1416C13.159 12.8682 13.2271 12.4876 13.2271 12C13.2271 11.5124 13.1578 11.1318 13.019 10.8584C12.8827 10.585 12.6818 10.3924 12.4162 10.2808C12.1531 10.1691 11.8302 10.1133 11.4475 10.1133H10.7442V13.8867Z" fill="white"/>
<path d="M2 15.5V8.5H5.17188C5.71727 8.5 6.19448 8.59456 6.60352 8.78369C7.01257 8.97282 7.33071 9.24512 7.55796 9.60059C7.7852 9.95605 7.89883 10.3822 7.89883 10.8789C7.89883 11.3802 7.78162 11.8029 7.54719 12.147C7.31516 12.491 6.98865 12.7508 6.56764 12.9263C6.14903 13.1017 5.65986 13.1895 5.10011 13.1895H3.2056V11.7129H4.69825C4.93267 11.7129 5.13241 11.6855 5.29746 11.6309C5.4649 11.5739 5.59288 11.4839 5.68138 11.3608C5.77228 11.2378 5.81773 11.0771 5.81773 10.8789C5.81773 10.6784 5.77228 10.5155 5.68138 10.3901C5.59288 10.2625 5.4649 10.1691 5.29746 10.1099C5.13241 10.0483 4.93267 10.0176 4.69825 10.0176H3.99498V15.5H2ZM6.30571 12.2871L8.14282 15.5H5.97561L4.18156 12.2871H6.30571Z" fill="white"/>
</svg>
